<?xml version="1.0" encoding="utf-8"?>
<!-- Svg Vector Icons : http://www.onlinewebfonts.com/icon -->
<!DOCTYPE svg PUBLIC "-//W3C//DTD SVG 1.1//EN" "http://www.w3.org/Graphics/SVG/1.1/DTD/svg11.dtd">
<svg version="1.1" xmlns="http://www.w3.org/2000/svg" xmlns:xlink="http://www.w3.org/1999/xlink" x="0px" y="0px" viewBox="0 0 1000 1000" enable-background="new 0 0 1000 1000" xml:space="preserve">
<metadata> Svg Vector Icons : http://www.onlinewebfonts.com/icon </metadata>
<g><g transform="translate(0.000000,511.000000) scale(0.100000,-0.100000)"><path d="M843.7,4993.5c-168.5-41.6-325.1-130.8-453.9-259.6c-130.8-128.8-202.2-251.7-255.7-436c-31.7-109-35.7-392.4-33.7-4122.6c0-2864,6-4031.5,21.8-4098.8c85.2-364.7,402.4-685.8,806.7-818.6l176.4-57.5H5000h3894.7l176.4,57.5c206.1,67.4,424.1,204.1,553,348.8c105,116.9,218,329,251.7,473.7c19.8,83.2,25.8,685.8,23.8,2705.5v2598.5l-43.6,128.8c-126.9,376.6-451.9,667.9-864.2,773c-124.9,31.7-220,39.6-507.4,39.6h-352.8v887.9c0,557-7.9,931.6-21.8,1004.9c-67.4,366.7-358.8,677.9-721.5,773c-103.1,25.8-499.5,29.7-3280.3,27.7C1652.4,5017.3,925,5013.3,843.7,4993.5z M7392.4,4680.4c144.7-53.5,305.2-202.2,376.6-350.8l55.5-111l11.9-3983.9c7.9-2866,17.9-4019.6,33.7-4108.8c45.6-241.8,83.3-380.6,140.7-509.4l59.5-128.8H4627.4c-3736.1,0-3528-5.9-3761.9,109c-130.8,63.4-283.4,198.2-362.7,323.1c-128.8,202.2-122.9-75.3-116.9,4307l5.9,3972l65.4,132.8c77.3,158.6,220,293.3,366.7,350.8C925,4722,976.5,4722,4102.2,4722l3175.2,2L7392.4,4680.4z M8944.3,1998.7c279.5-85.2,527.2-293.3,618.4-519.3l45.6-115V-1244v-2606.4L9533-4001c-160.6-327-519.3-529.2-899.9-507.4c-115,5.9-152.6,15.8-210.1,61.4c-144.7,109-233.9,346.9-271.5,725.4c-11.9,130.8-19.8,1213-19.8,2988.9v2786.7l352.8-11.9C8732.2,2036.3,8867,2022.5,8944.3,1998.7z"/><path d="M6258.6,3774.6c-208.1-53.5-307.2-178.4-307.2-386.5c0-194.2,91.2-275.5,408.3-368.7c255.7-75.3,309.2-128.8,235.9-231.9c-63.4-91.2-281.5-75.3-451.9,33.7l-89.2,55.5l-81.3-95.1l-81.3-97.1l57.5-41.6c257.7-182.3,632.3-208.1,808.7-53.5c109,97.1,138.7,178.4,128.8,368.7c-5.9,107-136.8,220-323.1,277.5c-261.6,79.3-317.1,103.1-338.9,152.6c-15.8,35.7-13.9,57.5,9.9,93.1c57.5,89.2,214.1,83.3,398.4-9.9l79.3-39.6l43.6,53.5c87.2,109,99.1,146.7,55.5,178.4C6696.6,3750.8,6395.4,3812.2,6258.6,3774.6z"/><path d="M1333.3,3138.3v-634.2h128.8h128.8v396.4c0,218,5.9,396.4,15.8,394.4c7.9,0,148.7-178.4,311.2-394.4l297.3-396.4h115h113v634.2v634.3h-128.8h-128.8l-4-390.5l-5.9-392.4l-297.3,392.4L1581,3772.6h-122.9h-124.9V3138.3z"/><path d="M2760.3,3138.3v-634.2h485.6h485.6V2623v118.9h-346.9h-346.9v138.7v138.7h297.3h297.3v118.9v118.9h-297.3h-297.3V3396v138.8h337h336.9v118.9v118.9H3236h-475.7V3138.3z"/><path d="M3890.1,3762.7c0-5.9,95.1-291.4,210.1-634.2l210.1-624.3h124.9H4558l134.8,392.4c73.3,214.1,138.7,396.4,146.7,404.3c5.9,7.9,73.3-168.5,150.6-392.5l138.8-404.3h120.9h122.9l200.2,588.7c111,323.1,206.1,608.5,212.1,634.2c11.9,43.6,9.9,45.6-126.8,45.6h-138.7l-63.4-202.2c-33.7-113-93.2-307.2-132.8-432.1l-71.3-227.9L5109,3336.5l-142.7,426.1l-116.9,5.9l-116.9,5.9l-136.8-412.3c-73.3-226-140.7-418.2-148.7-426.1c-6-7.9-71.4,176.4-140.7,410.3l-128.8,426.1h-142.7C3955.5,3772.6,3890.1,3768.6,3890.1,3762.7z"/><path d="M1333.3,571.6V-548.3h2774.9H6883V571.6v1119.9H4108.1H1333.3V571.6z M6605.5,571.6v-822.5H4118H1630.6v822.5v822.5H4118h2487.5V571.6z"/><path d="M1472-1390.6v-148.7h2636.1h2636.1v148.7v148.7H4108.1H1472V-1390.6z"/><path d="M1472-2361.8v-148.6h2636.1h2636.1v148.6v148.7H4108.1H1472V-2361.8z"/><path d="M1485.9-3198.2c-7.9-5.9-13.9-73.3-13.9-148.7v-134.8h2636.1h2636.1v148.7v148.7H4122C2679.1-3184.4,1491.8-3190.3,1485.9-3198.2z"/></g></g>
</svg>